<mxfile host="Electron" agent="Mozilla/5.0 (Windows NT 10.0; Win64; x64) AppleWebKit/537.36 (KHTML, like Gecko) draw.io/28.2.5 Chrome/138.0.7204.251 Electron/37.6.1 Safari/537.36" version="28.2.5" pages="2">
  <diagram name="Página-1" id="EbqvSy0O_uamLb-ivCjX">
    <mxGraphModel dx="946" dy="661" grid="1" gridSize="10" guides="1" tooltips="1" connect="1" arrows="1" fold="1" page="1" pageScale="1" pageWidth="827" pageHeight="1169" math="0" shadow="0">
      <root>
        <mxCell id="0" />
        <mxCell id="1" parent="0" />
        <mxCell id="OVsggOGgwdMoRwax-Imh-3" style="edgeStyle=orthogonalEdgeStyle;rounded=0;orthogonalLoop=1;jettySize=auto;html=1;exitX=1;exitY=0.5;exitDx=0;exitDy=0;entryX=0;entryY=0.5;entryDx=0;entryDy=0;" parent="1" source="M0XqjUEzMbhVuHoOyaxm-3" target="M0XqjUEzMbhVuHoOyaxm-8" edge="1">
          <mxGeometry relative="1" as="geometry">
            <mxPoint x="410" y="200" as="targetPoint" />
          </mxGeometry>
        </mxCell>
        <mxCell id="M0XqjUEzMbhVuHoOyaxm-2" value="&lt;br&gt;&lt;b&gt;SVM.pickle&lt;/b&gt;&lt;br&gt;X_train, X_test, X_val, y_train, y_test, y_val, X_train_scaled, X_test_scaled, X_val_scaled, classes_mapping" style="shape=document;whiteSpace=wrap;html=1;boundedLbl=1;" parent="1" vertex="1">
          <mxGeometry x="50" y="290" width="190" height="130" as="geometry" />
        </mxCell>
        <mxCell id="M0XqjUEzMbhVuHoOyaxm-3" value="Preparação de dados" style="rounded=1;whiteSpace=wrap;html=1;" parent="1" vertex="1">
          <mxGeometry x="70" y="170" width="120" height="60" as="geometry" />
        </mxCell>
        <mxCell id="M0XqjUEzMbhVuHoOyaxm-4" style="edgeStyle=orthogonalEdgeStyle;rounded=0;orthogonalLoop=1;jettySize=auto;html=1;entryX=0.421;entryY=0.018;entryDx=0;entryDy=0;entryPerimeter=0;endArrow=none;endFill=0;" parent="1" source="M0XqjUEzMbhVuHoOyaxm-3" target="M0XqjUEzMbhVuHoOyaxm-2" edge="1">
          <mxGeometry relative="1" as="geometry" />
        </mxCell>
        <mxCell id="M0XqjUEzMbhVuHoOyaxm-7" style="edgeStyle=orthogonalEdgeStyle;rounded=0;orthogonalLoop=1;jettySize=auto;html=1;" parent="1" source="M0XqjUEzMbhVuHoOyaxm-6" target="M0XqjUEzMbhVuHoOyaxm-3" edge="1">
          <mxGeometry relative="1" as="geometry" />
        </mxCell>
        <mxCell id="M0XqjUEzMbhVuHoOyaxm-6" value="" style="ellipse;whiteSpace=wrap;html=1;" parent="1" vertex="1">
          <mxGeometry x="10" y="190" width="20" height="20" as="geometry" />
        </mxCell>
        <mxCell id="M0XqjUEzMbhVuHoOyaxm-8" value="Ganho de informação&lt;br&gt;(dados de treino)" style="rounded=1;whiteSpace=wrap;html=1;" parent="1" vertex="1">
          <mxGeometry x="310" y="170" width="120" height="60" as="geometry" />
        </mxCell>
        <mxCell id="M0XqjUEzMbhVuHoOyaxm-9" value="Correlaciona Mutal information com Information Gain" style="shape=card;whiteSpace=wrap;html=1;" parent="1" vertex="1">
          <mxGeometry x="230" y="10" width="80" height="100" as="geometry" />
        </mxCell>
        <mxCell id="M0XqjUEzMbhVuHoOyaxm-10" value="" style="endArrow=none;html=1;rounded=0;exitX=0.5;exitY=0;exitDx=0;exitDy=0;entryX=0.6;entryY=0.97;entryDx=0;entryDy=0;entryPerimeter=0;" parent="1" source="M0XqjUEzMbhVuHoOyaxm-8" target="M0XqjUEzMbhVuHoOyaxm-9" edge="1">
          <mxGeometry width="50" height="50" relative="1" as="geometry">
            <mxPoint x="340" y="150" as="sourcePoint" />
            <mxPoint x="390" y="100" as="targetPoint" />
          </mxGeometry>
        </mxCell>
        <mxCell id="M0XqjUEzMbhVuHoOyaxm-11" value="&lt;b&gt;svm_selected_datasets.pickle&lt;/b&gt;&lt;br&gt;X_selected, y_selected, selected_features_list, selected_features_summary, strategy_used, creation_date, original_shape, selected_shape, reduction_percentage" style="shape=document;whiteSpace=wrap;html=1;boundedLbl=1;" parent="1" vertex="1">
          <mxGeometry x="285" y="290" width="190" height="180" as="geometry" />
        </mxCell>
        <mxCell id="M0XqjUEzMbhVuHoOyaxm-12" style="edgeStyle=orthogonalEdgeStyle;rounded=0;orthogonalLoop=1;jettySize=auto;html=1;entryX=0.5;entryY=0;entryDx=0;entryDy=0;endArrow=none;endFill=0;" parent="1" source="M0XqjUEzMbhVuHoOyaxm-8" target="M0XqjUEzMbhVuHoOyaxm-11" edge="1">
          <mxGeometry relative="1" as="geometry">
            <mxPoint x="380" y="270" as="targetPoint" />
          </mxGeometry>
        </mxCell>
        <mxCell id="M0XqjUEzMbhVuHoOyaxm-13" value="Threshod baseado na mediana" style="shape=card;whiteSpace=wrap;html=1;" parent="1" vertex="1">
          <mxGeometry x="330" y="10" width="80" height="100" as="geometry" />
        </mxCell>
        <mxCell id="M0XqjUEzMbhVuHoOyaxm-15" value="Drop campos altamente correlacionados" style="shape=card;whiteSpace=wrap;html=1;" parent="1" vertex="1">
          <mxGeometry x="430" y="20" width="100" height="100" as="geometry" />
        </mxCell>
        <mxCell id="M0XqjUEzMbhVuHoOyaxm-16" value="" style="endArrow=none;html=1;rounded=0;exitX=0.5;exitY=0;exitDx=0;exitDy=0;entryX=0.5;entryY=1;entryDx=0;entryDy=0;entryPerimeter=0;" parent="1" source="M0XqjUEzMbhVuHoOyaxm-8" target="M0XqjUEzMbhVuHoOyaxm-15" edge="1">
          <mxGeometry width="50" height="50" relative="1" as="geometry">
            <mxPoint x="602" y="213" as="sourcePoint" />
            <mxPoint x="500" y="150" as="targetPoint" />
          </mxGeometry>
        </mxCell>
        <mxCell id="M0XqjUEzMbhVuHoOyaxm-17" value="" style="endArrow=none;html=1;rounded=0;" parent="1" target="M0XqjUEzMbhVuHoOyaxm-13" edge="1">
          <mxGeometry width="50" height="50" relative="1" as="geometry">
            <mxPoint x="370" y="170" as="sourcePoint" />
            <mxPoint x="490" y="120" as="targetPoint" />
          </mxGeometry>
        </mxCell>
        <mxCell id="M0XqjUEzMbhVuHoOyaxm-18" value="treino = 40%&lt;div&gt;teste = 30%&lt;/div&gt;&lt;div&gt;validaçao = 30%&lt;/div&gt;" style="shape=card;whiteSpace=wrap;html=1;" parent="1" vertex="1">
          <mxGeometry x="80" y="20" width="100" height="100" as="geometry" />
        </mxCell>
        <mxCell id="M0XqjUEzMbhVuHoOyaxm-19" style="edgeStyle=orthogonalEdgeStyle;rounded=0;orthogonalLoop=1;jettySize=auto;html=1;entryX=0.417;entryY=0.033;entryDx=0;entryDy=0;entryPerimeter=0;" parent="1" source="M0XqjUEzMbhVuHoOyaxm-18" target="M0XqjUEzMbhVuHoOyaxm-3" edge="1">
          <mxGeometry relative="1" as="geometry" />
        </mxCell>
        <mxCell id="M0XqjUEzMbhVuHoOyaxm-21" value="GridSearch com os modelos" style="rounded=1;whiteSpace=wrap;html=1;" parent="1" vertex="1">
          <mxGeometry x="490" y="170" width="120" height="60" as="geometry" />
        </mxCell>
        <mxCell id="M0XqjUEzMbhVuHoOyaxm-22" value="Treinamento dataset svm" style="rounded=1;whiteSpace=wrap;html=1;" parent="1" vertex="1">
          <mxGeometry x="670" y="170" width="120" height="60" as="geometry" />
        </mxCell>
        <mxCell id="M0XqjUEzMbhVuHoOyaxm-25" style="edgeStyle=orthogonalEdgeStyle;rounded=0;orthogonalLoop=1;jettySize=auto;html=1;exitX=1;exitY=0.5;exitDx=0;exitDy=0;" parent="1" edge="1">
          <mxGeometry relative="1" as="geometry">
            <mxPoint x="430" y="199.5" as="sourcePoint" />
            <mxPoint x="490" y="200" as="targetPoint" />
          </mxGeometry>
        </mxCell>
        <mxCell id="M0XqjUEzMbhVuHoOyaxm-27" style="edgeStyle=orthogonalEdgeStyle;rounded=0;orthogonalLoop=1;jettySize=auto;html=1;exitX=1;exitY=0.5;exitDx=0;exitDy=0;entryX=0;entryY=0.5;entryDx=0;entryDy=0;" parent="1" source="M0XqjUEzMbhVuHoOyaxm-21" target="M0XqjUEzMbhVuHoOyaxm-22" edge="1">
          <mxGeometry relative="1" as="geometry">
            <mxPoint x="630" y="190" as="sourcePoint" />
            <mxPoint x="690" y="190.5" as="targetPoint" />
          </mxGeometry>
        </mxCell>
        <mxCell id="M0XqjUEzMbhVuHoOyaxm-30" style="edgeStyle=orthogonalEdgeStyle;rounded=0;orthogonalLoop=1;jettySize=auto;html=1;" parent="1" source="M0XqjUEzMbhVuHoOyaxm-28" target="M0XqjUEzMbhVuHoOyaxm-31" edge="1">
          <mxGeometry relative="1" as="geometry">
            <mxPoint x="730" y="410" as="targetPoint" />
          </mxGeometry>
        </mxCell>
        <mxCell id="M0XqjUEzMbhVuHoOyaxm-28" value="Teste Tera-sorte com o modelo do dataset svm" style="rounded=1;whiteSpace=wrap;html=1;" parent="1" vertex="1">
          <mxGeometry x="670" y="280" width="120" height="60" as="geometry" />
        </mxCell>
        <mxCell id="M0XqjUEzMbhVuHoOyaxm-29" style="rounded=0;orthogonalLoop=1;jettySize=auto;html=1;entryX=0.5;entryY=0;entryDx=0;entryDy=0;" parent="1" source="M0XqjUEzMbhVuHoOyaxm-22" target="M0XqjUEzMbhVuHoOyaxm-28" edge="1">
          <mxGeometry relative="1" as="geometry" />
        </mxCell>
        <mxCell id="M0XqjUEzMbhVuHoOyaxm-31" value="" style="ellipse;whiteSpace=wrap;html=1;fillColor=#000000;" parent="1" vertex="1">
          <mxGeometry x="720" y="390" width="20" height="20" as="geometry" />
        </mxCell>
      </root>
    </mxGraphModel>
  </diagram>
  <diagram id="sIdZahtBozyH_PGeNN7C" name="Página-2">
    <mxGraphModel dx="946" dy="661" grid="1" gridSize="10" guides="1" tooltips="1" connect="1" arrows="1" fold="1" page="1" pageScale="1" pageWidth="827" pageHeight="1169" math="0" shadow="0">
      <root>
        <mxCell id="0" />
        <mxCell id="1" parent="0" />
        <mxCell id="M13i6kYkHGCVRKX_Pbnh-5" value="" style="whiteSpace=wrap;html=1;aspect=fixed;" vertex="1" parent="1">
          <mxGeometry x="190" y="80" width="240" height="240" as="geometry" />
        </mxCell>
      </root>
    </mxGraphModel>
  </diagram>
</mxfile>
